<?xml version="1.0" encoding="UTF-8"?>
<svg id="logos" xmlns="http://www.w3.org/2000/svg" xmlns:xlink="http://www.w3.org/1999/xlink" viewBox="0 0 221.54 69.26">
  <defs>
    <style>
      .cls-1 {
        fill: url(#GG_Primary_Aqua_Gradient);
      }

      .cls-1, .cls-2, .cls-3 {
        stroke-width: 0px;
      }

      .cls-2 {
        fill: #565958;
      }

      .cls-3 {
        fill: #555958;
      }
    </style>
    <linearGradient id="GG_Primary_Aqua_Gradient" data-name="GG Primary Aqua Gradient" x1="183.69" y1="18.81" x2="221.54" y2="18.81" gradientUnits="userSpaceOnUse">
      <stop offset="0" stop-color="#00ce7c"/>
      <stop offset="1" stop-color="#4ac1e0"/>
    </linearGradient>
  </defs>
  <g>
    <g>
      <path class="cls-3" d="m3.25,64.5c.49-1.07,1.3-1.42,2.43-1.05,1.56.58,3.13.87,4.72.87,1.95,0,3.54-.46,4.76-1.37,1.22-.92,1.83-2.35,1.83-4.31v-1.74l.09-1.19h-.09c-1.34,2.32-3.48,3.48-6.41,3.48-3.3,0-5.89-1.13-7.77-3.39-1.88-2.26-2.82-5.09-2.82-8.47s.92-6.13,2.75-8.32c1.83-2.18,4.43-3.28,7.79-3.28,1.01,0,1.94.12,2.79.37.85.24,1.53.54,2.02.89.49.35.9.7,1.24,1.05.34.35.56.65.69.89l.18.37h.09c-.03-.15-.05-.35-.05-.6v-.87c0-.46.16-.83.48-1.12.32-.29.79-.43,1.4-.43h1.56c1.25,0,1.88.64,1.88,1.92v20.02c0,3.69-1.2,6.46-3.6,8.29-2.4,1.83-5.23,2.75-8.5,2.75-2.63,0-4.9-.41-6.83-1.24-1.16-.49-1.5-1.31-1.01-2.47l.37-1.05Zm8.47-10.22c1.56,0,2.85-.53,3.87-1.6,1.02-1.07,1.53-2.81,1.53-5.22,0-4.52-1.89-6.78-5.68-6.78-1.77,0-3.15.58-4.12,1.74-.98,1.16-1.47,2.72-1.47,4.67,0,2.17.52,3.91,1.56,5.22,1.04,1.31,2.47,1.97,4.31,1.97Z"/>
      <path class="cls-3" d="m27.81,51.31v-13.1c0-1.28.64-1.92,1.92-1.92h1.97c1.28,0,1.92.64,1.92,1.92v11.91c0,1.56.27,2.74.8,3.55.53.81,1.47,1.21,2.82,1.21,2.02,0,3.61-.76,4.79-2.29,1.18-1.53,1.76-3.39,1.76-5.59v-8.8c0-1.28.64-1.92,1.92-1.92h1.97c1.28,0,1.92.64,1.92,1.92v19.52c0,1.28-.64,1.92-1.92,1.92h-1.79c-1.25,0-1.88-.64-1.88-1.92v-1.37l.09-1.05h-.09c-.61,1.31-1.65,2.46-3.11,3.44-1.47.98-3.13,1.47-4.99,1.47-5.41,0-8.11-2.96-8.11-8.89Z"/>
      <path class="cls-3" d="m54.88,57.72v-19.52c0-1.28.63-1.92,1.88-1.92h1.79c1.25,0,1.88.64,1.88,1.92v1.42l-.09,1.05h.09c.64-1.31,1.66-2.47,3.05-3.46,1.39-.99,2.92-1.49,4.6-1.49,3.57,0,5.85,1.6,6.83,4.81h.09c.67-1.31,1.73-2.44,3.18-3.39,1.45-.95,3.05-1.42,4.79-1.42,5.1,0,7.65,2.96,7.65,8.89v13.1c0,1.28-.64,1.92-1.92,1.92h-1.97c-1.28,0-1.92-.64-1.92-1.92v-12c0-1.53-.22-2.69-.66-3.48-.44-.79-1.29-1.19-2.54-1.19-1.86,0-3.32.8-4.37,2.4-1.05,1.6-1.58,3.5-1.58,5.7v8.57c0,1.28-.63,1.92-1.88,1.92h-2.02c-1.28,0-1.92-.64-1.92-1.92v-12c0-1.5-.21-2.65-.62-3.46-.41-.81-1.24-1.21-2.5-1.21-1.92,0-3.41.81-4.47,2.43-1.05,1.62-1.58,3.51-1.58,5.68v8.57c0,1.28-.63,1.92-1.88,1.92h-2.02c-1.25,0-1.88-.64-1.88-1.92Z"/>
      <path class="cls-3" d="m97.49,64.5c.49-1.07,1.3-1.42,2.43-1.05,1.56.58,3.13.87,4.72.87,1.95,0,3.54-.46,4.76-1.37,1.22-.92,1.83-2.35,1.83-4.31v-1.74l.09-1.19h-.09c-1.34,2.32-3.48,3.48-6.41,3.48-3.3,0-5.89-1.13-7.77-3.39-1.88-2.26-2.82-5.09-2.82-8.47s.92-6.13,2.75-8.32c1.83-2.18,4.43-3.28,7.79-3.28,1.01,0,1.94.12,2.79.37.85.24,1.53.54,2.02.89.49.35.9.7,1.24,1.05.34.35.56.65.69.89l.18.37h.09c-.03-.15-.05-.35-.05-.6v-.87c0-.46.16-.83.48-1.12.32-.29.79-.43,1.4-.43h1.56c1.25,0,1.88.64,1.88,1.92v20.02c0,3.69-1.2,6.46-3.6,8.29-2.4,1.83-5.23,2.75-8.5,2.75-2.63,0-4.9-.41-6.83-1.24-1.16-.49-1.5-1.31-1.01-2.47l.37-1.05Zm8.47-10.22c1.56,0,2.85-.53,3.87-1.6,1.02-1.07,1.53-2.81,1.53-5.22,0-4.52-1.89-6.78-5.68-6.78-1.77,0-3.15.58-4.12,1.74-.98,1.16-1.47,2.72-1.47,4.67,0,2.17.52,3.91,1.56,5.22,1.04,1.31,2.47,1.97,4.31,1.97Z"/>
      <path class="cls-3" d="m122.04,51.31v-13.1c0-1.28.64-1.92,1.92-1.92h1.97c1.28,0,1.92.64,1.92,1.92v11.91c0,1.56.27,2.74.8,3.55.53.81,1.47,1.21,2.82,1.21,2.02,0,3.61-.76,4.79-2.29,1.18-1.53,1.76-3.39,1.76-5.59v-8.8c0-1.28.64-1.92,1.92-1.92h1.97c1.28,0,1.92.64,1.92,1.92v19.52c0,1.28-.64,1.92-1.92,1.92h-1.79c-1.25,0-1.88-.64-1.88-1.92v-1.37l.09-1.05h-.09c-.61,1.31-1.65,2.46-3.11,3.44-1.47.98-3.13,1.47-4.99,1.47-5.41,0-8.11-2.96-8.11-8.89Z"/>
      <path class="cls-3" d="m149.11,57.72v-19.52c0-1.28.63-1.92,1.88-1.92h1.79c1.25,0,1.88.64,1.88,1.92v1.42l-.09,1.05h.09c.64-1.31,1.66-2.47,3.05-3.46,1.39-.99,2.92-1.49,4.6-1.49,3.57,0,5.85,1.6,6.83,4.81h.09c.67-1.31,1.73-2.44,3.18-3.39,1.45-.95,3.05-1.42,4.79-1.42,5.1,0,7.65,2.96,7.65,8.89v13.1c0,1.28-.64,1.92-1.92,1.92h-1.97c-1.28,0-1.92-.64-1.92-1.92v-12c0-1.53-.22-2.69-.66-3.48-.44-.79-1.29-1.19-2.54-1.19-1.86,0-3.32.8-4.37,2.4-1.05,1.6-1.58,3.5-1.58,5.7v8.57c0,1.28-.63,1.92-1.88,1.92h-2.02c-1.28,0-1.92-.64-1.92-1.92v-12c0-1.5-.21-2.65-.62-3.46-.41-.81-1.24-1.21-2.5-1.21-1.92,0-3.41.81-4.47,2.43-1.05,1.62-1.58,3.51-1.58,5.68v8.57c0,1.28-.63,1.92-1.88,1.92h-2.02c-1.25,0-1.88-.64-1.88-1.92Z"/>
    </g>
    <path class="cls-1" d="m214.1,0h-11.57c-4.1,0-7.44,3.34-7.44,7.44v13.42s0,.09,0,.12c-.09.02-.21.03-.31.03h-5.38c-3.15-.01-5.71,2.55-5.71,5.7v5.2c0,3.15,2.56,5.71,5.71,5.71h5.2c3.15,0,5.71-2.56,5.71-5.71v-5.24c0-.06.02-.14.04-.19.05-.01.15-.03.31-.03h13.44c4.1,0,7.44-3.34,7.44-7.44V7.44c0-4.1-3.34-7.44-7.44-7.44Zm2.22,7.44v11.57c0,1.22-1,2.22-2.22,2.22h-13.44c-.12,0-.24,0-.36,0,0-.11.01-.22.01-.33V7.44c0-1.22,1-2.22,2.22-2.22h11.57c1.22,0,2.22,1,2.22,2.22Zm-21.21,18.78c-.02.23-.02.41-.02.53v5.16c0,.26-.23.5-.5.5h-5.2c-.26,0-.5-.23-.5-.5v-5.2c0-.26.23-.5.5-.5h5.07c.16,0,.41.01.65,0Z"/>
  </g>
  <path class="cls-2" d="m188.49,59.43c-.21,0-.31-.1-.31-.3v-2.36h-.79c-.2,0-.3-.1-.3-.29v-.04c0-.19.1-.29.3-.29h2.28c.21,0,.31.1.31.29v.04c0,.19-.11.29-.31.29h-.79v2.36c0,.2-.1.3-.3.3h-.09Zm1.93-2.99c.01-.2.12-.3.32-.3h.11c.17,0,.29.08.36.24l.58,1.31s.02.07.04.11.02.07.04.1c0,.04.02.07.03.11h.01s.01-.07.03-.11c0-.03.02-.06.04-.1s.03-.07.04-.11l.58-1.31c.07-.16.18-.24.36-.24h.11c.2,0,.3.1.32.3l.21,2.67c0,.21-.09.32-.3.32h-.1c-.19,0-.3-.1-.31-.3l-.11-1.39s0-.05,0-.08v-.08s0-.05,0-.07h-.01l-.48,1.08c-.07.16-.18.24-.36.24h-.04c-.17,0-.29-.08-.35-.24l-.48-1.08h-.01s0,.05,0,.07v.15l-.11,1.39c-.01.2-.12.3-.32.3h-.09c-.21,0-.31-.11-.3-.32l.21-2.67h-.01Z"/>
</svg>